# xmcd CD database file
#
# Track frame offsets:
#	183
#	22073
#	36025
#	48540
#	63270
#	80915
#	98770
#	117440
#	133373
#	150360
#	164593
#	180795
#	199850
#	218058
#	234570
#	263323
#	287883
#
# Disc length: 4022 seconds
#
# Revision: 1
# Processed by: cddbd v1.5.2PL0 Copyright (c) Steve Scherf et al.
# Submitted via: CDex 1.51
#
DISCID=ed0fb411
DTITLE=Various Artist - Top Pop 91 - הלהיטים החמים של החורף
DYEAR=1991
DGENRE=Europop
TTITLE0=John Travolta - The Grease Megamix (You're the One That I Want/ Greased Lightning/ Summer Nights) (with Olivia Newton-John) (7" Version)
TTITLE1=Kylie Minogue - Step Back In Time (Edit)
TTITLE2=Twenty 4 Seven - Are You Dreaming? (Radio Edit) (feat. Captain Hollywood)
TTITLE3=Bombalurina - Seven Little Girls (Sitting in the Back Seat) (feat. Timmy Mallett)
TTITLE4=Inxs - Suicide Blonde (7" Version)
TTITLE5=Cathy Dennis - Just Another Dream (Hot Mix)
TTITLE6=Stax - Mary Had A Little Boy (Radio Edit)
TTITLE7=Latino Party - The Party (Radio Edit)
TTITLE8=Double Trouble's Collective Effort - Celebrate (Edit)
TTITLE9=Hi Tec 3 - Come On And Dance (Dizzy Radio Edit) (feat. MC Shamrock)
TTITLE10=Twenty 4 Seven - I Can't Stand it! (Radio Remix by Bruce Forest for DMC UK) (feat. Captain Hollywood)
TTITLE11=MC Fixx It - Let's Move (Single Edit)
TTITLE12=Technotronic - Turn It Up (Radio Edit) (feat. Melissa and Einstein)
TTITLE13=Delage - Rock The Boat (7" Version)
TTITLE14=Anita Ward - Ring My Bell (1990 Mega Remix 12" Version)
TTITLE15=Status Quo - Anniversary Waltz (Part One)
TTITLE16=Jason Donovan - Rhythm Of The Rain
EXTD=YEAR: 1991
EXTT0=
EXTT1=
EXTT2=
EXTT3=
EXTT4=
EXTT5=
EXTT6=
EXTT7=
EXTT8=
EXTT9=
EXTT10=
EXTT11=
EXTT12=
EXTT13=
EXTT14=
EXTT15=
EXTT16=
PLAYORDER=
